<svg width="355" height="355" viewBox="0 0 355 355" fill="none" xmlns="http://www.w3.org/2000/svg">
<path d="M325.045 212.279C325.553 210.27 326.429 208.677 327.671 207.5C328.914 206.322 330.418 205.564 332.184 205.226C333.948 204.896 335.867 204.994 337.942 205.519C340.017 206.044 341.752 206.871 343.147 208C344.539 209.137 345.502 210.52 346.035 212.146C346.568 213.773 346.581 215.59 346.072 217.6C345.481 219.936 344.402 221.706 342.834 222.911C341.264 224.124 339.402 224.762 337.249 224.824L337.218 222.116C338.827 222.086 340.199 221.652 341.336 220.816C342.472 219.98 343.256 218.707 343.689 216.997C344.07 215.492 344.046 214.154 343.616 212.981C343.187 211.808 342.424 210.815 341.328 210C340.241 209.188 338.89 208.573 337.275 208.155C335.67 207.739 334.192 207.628 332.84 207.823C331.497 208.02 330.352 208.536 329.405 209.37C328.468 210.207 327.809 211.378 327.428 212.882C326.995 214.592 327.08 216.086 327.682 217.361C328.293 218.64 329.294 219.674 330.686 220.463L329.371 222.83C327.515 221.754 326.181 220.308 325.367 218.491C324.561 216.686 324.454 214.616 325.045 212.279Z" fill="white"/>
<path d="M317.892 234.464C318.708 232.559 319.822 231.123 321.234 230.154C322.645 229.186 324.249 228.673 326.047 228.615C327.841 228.566 329.721 228.963 331.688 229.806C333.655 230.649 335.239 231.737 336.44 233.07C337.637 234.412 338.372 235.928 338.644 237.618C338.916 239.307 338.644 241.105 337.827 243.01C337.007 244.924 335.891 246.365 334.479 247.333C333.068 248.301 331.465 248.81 329.672 248.859C327.878 248.908 325.998 248.511 324.031 247.668C322.064 246.825 320.48 245.737 319.279 244.404C318.078 243.071 317.341 241.559 317.069 239.87C316.797 238.18 317.071 236.378 317.892 234.464ZM320.151 235.433C319.531 236.855 319.341 238.179 319.581 239.405C319.827 240.643 320.429 241.745 321.388 242.712C322.344 243.688 323.584 244.503 325.108 245.156C326.641 245.813 328.085 246.149 329.442 246.165C330.795 246.189 332.001 245.861 333.057 245.181C334.111 244.511 334.947 243.464 335.568 242.041C336.188 240.619 336.378 239.295 336.138 238.069C335.894 236.853 335.294 235.757 334.338 234.781C333.382 233.805 332.14 232.984 330.611 232.318C329.091 231.656 327.652 231.317 326.295 231.302C324.939 231.286 323.729 231.612 322.667 232.279C321.61 232.959 320.771 234.01 320.151 235.433Z" fill="white"/>
<path d="M311.816 249.114L329.419 260.235L328.029 262.436L308.476 262.928L322.229 271.616L320.839 273.817L303.235 262.695L304.626 260.495L324.191 260.011L310.426 251.314L311.816 249.114Z" fill="white"/>
<path d="M293.907 274.11C294.87 272.993 295.929 272.15 297.083 271.579C298.231 271.016 299.407 270.745 300.611 270.765C301.817 270.8 302.977 271.145 304.092 271.801L302.671 274.089C301.458 273.488 300.224 273.347 298.969 273.665C297.716 273.997 296.617 274.71 295.672 275.805C295.061 276.513 294.62 277.246 294.348 278.004C294.077 278.776 294.004 279.509 294.131 280.204C294.257 280.899 294.605 281.492 295.174 281.983C295.525 282.285 295.877 282.481 296.233 282.571C296.589 282.675 296.946 282.696 297.304 282.636C297.662 282.589 298.017 282.487 298.368 282.332C298.719 282.176 299.057 281.99 299.383 281.775L304.043 278.786C304.552 278.462 305.081 278.18 305.631 277.941C306.188 277.709 306.755 277.561 307.331 277.498C307.915 277.441 308.5 277.501 309.087 277.676C309.682 277.858 310.271 278.201 310.855 278.704C311.789 279.51 312.377 280.438 312.618 281.486C312.86 282.548 312.798 283.646 312.43 284.781C312.063 285.915 311.425 287.001 310.518 288.038C309.597 289.091 308.592 289.872 307.502 290.383C306.413 290.908 305.289 291.148 304.131 291.103C302.966 291.066 301.824 290.73 300.704 290.095L302.128 287.714C302.864 288.158 303.626 288.389 304.414 288.406C305.202 288.437 305.963 288.279 306.696 287.931C307.436 287.589 308.1 287.086 308.686 286.42C309.248 285.784 309.646 285.116 309.881 284.415C310.117 283.714 310.177 283.047 310.062 282.413C309.954 281.785 309.656 281.26 309.167 280.838C308.685 280.423 308.175 280.224 307.636 280.244C307.105 280.269 306.578 280.407 306.057 280.657C305.536 280.921 305.055 281.2 304.611 281.492L301.158 283.746C300.768 284.007 300.296 284.288 299.744 284.588C299.186 284.896 298.571 285.129 297.899 285.288C297.235 285.453 296.531 285.457 295.788 285.3C295.052 285.15 294.305 284.747 293.546 284.092C292.787 283.437 292.244 282.701 291.917 281.885C291.584 281.075 291.45 280.227 291.514 279.341C291.586 278.461 291.828 277.575 292.241 276.683C292.646 275.785 293.202 274.928 293.907 274.11Z" fill="white"/>
<path d="M278.499 289.964C279.717 288.912 281.01 288.234 282.379 287.93C283.747 287.627 285.089 287.697 286.403 288.141C287.716 288.599 288.902 289.441 289.961 290.666L298.602 300.666L296.643 302.379L288.133 292.532C287.49 291.788 286.805 291.246 286.078 290.906C285.35 290.58 284.621 290.414 283.89 290.408C283.159 290.403 282.467 290.523 281.813 290.77C281.159 291.03 280.583 291.374 280.087 291.802C279.584 292.237 279.16 292.763 278.814 293.381C278.468 293.998 278.246 294.662 278.146 295.372C278.046 296.096 278.111 296.842 278.342 297.611C278.573 298.38 279.007 299.132 279.643 299.869L288.153 309.716L286.183 311.417L277.532 301.407C276.48 300.189 275.826 298.894 275.57 297.522C275.307 296.156 275.425 294.818 275.924 293.508C276.423 292.198 277.281 291.017 278.499 289.964Z" fill="white"/>
<path d="M266.653 300.175L278.095 317.572L275.945 318.986L265.845 303.631L257.775 308.939L256.432 306.898L266.653 300.175Z" fill="white"/>
<path d="M248.053 311.536L256.24 327.99L262.596 324.828L263.685 327.016L248.667 334.487L247.578 332.299L253.935 329.137L245.749 312.682L248.053 311.536Z" fill="white"/>
<path d="M236.697 317.253L236.841 339.21L233.448 340.371L220.115 322.925L222.646 322.059L235.068 338.227L234.302 338.489L234.166 318.119L236.697 317.253ZM235.1 322.949L235.881 325.234L225.647 328.735L224.866 326.45L235.1 322.949Z" fill="white"/>
<path d="M209.583 325.451L213.089 343.493L220.058 342.138L220.524 344.537L204.059 347.737L203.592 345.338L210.562 343.984L207.056 325.942L209.583 325.451Z" fill="white"/>
<path d="M194.975 327.86L196.848 348.598L194.285 348.83L192.411 328.092L194.975 327.86Z" fill="white"/>
<path d="M176.006 328.354C178.078 328.404 179.826 328.905 181.249 329.856C182.673 330.806 183.745 332.105 184.467 333.753C185.179 335.4 185.509 337.293 185.457 339.432C185.405 341.572 184.983 343.447 184.191 345.057C183.39 346.667 182.256 347.912 180.788 348.793C179.32 349.673 177.55 350.088 175.478 350.038C173.397 349.987 171.644 349.486 170.221 348.535C168.798 347.585 167.73 346.286 167.018 344.639C166.306 342.992 165.976 341.099 166.028 338.959C166.08 336.82 166.502 334.945 167.293 333.334C168.085 331.724 169.214 330.479 170.682 329.598C172.15 328.718 173.925 328.303 176.006 328.354ZM175.947 330.811C174.395 330.764 173.095 331.08 172.047 331.758C170.989 332.446 170.189 333.415 169.648 334.665C169.096 335.914 168.801 337.368 168.76 339.026C168.72 340.693 168.944 342.159 169.434 343.425C169.914 344.69 170.666 345.687 171.69 346.416C172.704 347.145 173.987 347.533 175.538 347.58C177.09 347.627 178.389 347.312 179.438 346.634C180.476 345.955 181.271 344.991 181.822 343.741C182.374 342.491 182.674 341.033 182.725 339.366C182.775 337.708 182.555 336.247 182.065 334.981C181.575 333.716 180.823 332.714 179.809 331.976C178.785 331.247 177.498 330.859 175.947 330.811Z" fill="white"/>
<path d="M159.674 328.043L155.821 348.505L153.263 348.024L145.601 330.028L142.591 346.014L140.033 345.533L143.886 325.07L146.444 325.552L154.103 343.562L157.116 327.561L159.674 328.043Z" fill="white"/>
<path d="M118.53 316.361C119.837 316.933 120.929 317.685 121.805 318.616C122.682 319.547 123.321 320.61 123.723 321.807C124.122 323.013 124.266 324.318 124.156 325.722C124.034 327.131 123.637 328.604 122.964 330.141C122.075 332.172 120.944 333.771 119.57 334.937C118.197 336.104 116.676 336.801 115.009 337.029C113.337 337.265 111.614 336.995 109.839 336.218C107.702 335.283 106.198 334.03 105.328 332.46C104.454 330.899 104.146 329.149 104.406 327.21L107.005 327.764C106.896 329.095 107.145 330.304 107.753 331.391C108.361 332.478 109.345 333.319 110.705 333.914C112.123 334.545 113.446 334.745 114.673 334.514C115.887 334.288 116.986 333.701 117.969 332.753C118.953 331.805 119.783 330.569 120.461 329.045C121.134 327.53 121.484 326.094 121.51 324.737C121.535 323.38 121.219 322.168 120.56 321.101C119.888 320.039 118.843 319.192 117.425 318.561C116.202 318.015 115.066 317.797 114.018 317.906C112.971 318.016 112.02 318.421 111.167 319.121C110.313 319.82 109.561 320.78 108.911 322.001L112.965 323.775L112.113 325.722L105.569 322.858C105.62 322.67 105.699 322.452 105.807 322.205C105.903 321.962 105.97 321.797 106.009 321.709C106.77 319.969 107.779 318.553 109.036 317.462C110.279 316.375 111.709 315.717 113.325 315.488C114.932 315.255 116.667 315.546 118.53 316.361Z" fill="white"/>
<path d="M104.775 310.504L93.7191 328.149L86.7469 323.781C86.5754 323.673 86.3763 323.537 86.1496 323.372C85.9178 323.216 85.7045 323.048 85.5095 322.869C84.6459 322.123 84.05 321.295 83.722 320.384C83.3859 319.468 83.2975 318.519 83.457 317.539C83.6114 316.566 83.9829 315.61 84.5715 314.671C85.4263 313.306 86.5238 312.345 87.8641 311.785C89.1992 311.234 90.6323 311.261 92.1634 311.868L93.081 312.255L98.5093 315.657L102.594 309.138L104.775 310.504ZM94.2737 303.925L93.2546 313.286L90.6834 312.596L91.774 302.358L94.2737 303.925ZM97.2118 317.727L92.4942 314.772C92.339 314.674 92.1583 314.572 91.952 314.466C91.7375 314.354 91.5276 314.263 91.3223 314.191C90.6768 313.968 90.0709 313.919 89.5046 314.042C88.9251 314.168 88.4078 314.412 87.9527 314.776C87.4924 315.147 87.1087 315.578 86.8016 316.068C86.4945 316.558 86.2768 317.087 86.1484 317.655C86.0149 318.231 86.0179 318.808 86.1572 319.384C86.2884 319.955 86.5974 320.479 87.0843 320.955C87.2333 321.116 87.4073 321.265 87.6064 321.401C87.7923 321.54 87.9628 321.659 88.118 321.756L92.8355 324.712L97.2118 317.727Z" fill="white"/>
<path d="M87.8365 299.865L69.083 311.286L66.342 308.974L74.4408 288.564L76.4855 290.289L69.0138 309.26L68.3948 308.738L85.7918 298.14L87.8365 299.865ZM82.1302 301.426L80.5732 303.272L72.3058 296.298L73.8629 294.452L82.1302 301.426Z" fill="white"/>
<path d="M66.8729 280.86L53.2333 293.178L57.9919 298.447L56.1783 300.085L44.9359 287.637L46.7495 285.999L51.5081 291.268L65.1478 278.95L66.8729 280.86Z" fill="white"/>
<path d="M53.2012 263.26C54.1005 264.595 54.6189 265.961 54.7565 267.356C54.894 268.751 54.6636 270.074 54.0652 271.325C53.4535 272.574 52.476 273.651 51.1327 274.555L40.1705 281.938L38.7046 279.787L49.4988 272.518C50.3144 271.968 50.9345 271.353 51.3591 270.672C51.7703 269.988 52.0223 269.284 52.1152 268.559C52.208 267.834 52.1713 267.132 52.005 266.454C51.8254 265.773 51.5524 265.161 51.1863 264.617C50.8147 264.065 50.3432 263.581 49.7718 263.164C49.2003 262.747 48.5679 262.446 47.8745 262.262C47.1678 262.076 46.4191 262.051 45.6283 262.189C44.8375 262.326 44.0384 262.667 43.2308 263.211L32.4365 270.48L30.9826 268.321L41.9568 260.931C43.2921 260.031 44.656 259.537 46.0486 259.448C47.4358 259.35 48.7498 259.627 49.9908 260.279C51.2318 260.931 52.3019 261.925 53.2012 263.26Z" fill="white"/>
<path d="M44.4735 250.074L26.0032 259.687L24.8148 257.404L43.2851 247.791L44.4735 250.074Z" fill="white"/>
<path d="M37.5835 235.845L20.5235 242.681L23.1644 249.271L20.896 250.18L14.6569 234.61L16.9253 233.701L19.5662 240.292L36.6262 233.456L37.5835 235.845Z" fill="white"/>
<path d="M32.4803 222.591L12.3141 227.777L9.03675 215.033L11.4035 214.424L14.0398 224.676L20.3557 223.051L18.1516 214.481L20.5183 213.872L22.7224 222.443L29.4725 220.707L26.8362 210.456L29.203 209.847L32.4803 222.591Z" fill="white"/>
<path d="M20.8132 182.245C21.0333 184.833 19.139 187.079 16.551 187.299C13.9629 187.519 11.7164 185.625 11.4963 183.037C11.2762 180.449 13.1705 178.202 15.7585 177.982C18.3465 177.762 20.5931 179.657 20.8132 182.245Z" fill="white"/>
<path d="M345.648 176.346C345.85 178.728 344.106 180.797 341.723 180.999C339.341 181.202 337.272 179.458 337.07 177.075C336.867 174.692 338.611 172.624 340.994 172.421C343.377 172.219 345.445 173.963 345.648 176.346Z" fill="white"/>
<path d="M30.9406 140.654C30.4061 142.657 29.5099 144.239 28.2522 145.399C26.9944 146.56 25.4804 147.299 23.7099 147.614C21.9419 147.921 20.0241 147.798 17.9564 147.246C15.8887 146.694 14.1648 145.845 12.7847 144.698C11.407 143.542 10.4623 142.148 9.95036 140.514C9.43846 138.881 9.44977 137.063 9.98428 135.061C10.6058 132.732 11.7081 130.976 13.2913 129.792C14.8769 128.599 16.7468 127.986 18.9009 127.952L18.8965 130.66C17.2876 130.669 15.9096 131.085 14.7625 131.906C13.6153 132.727 12.8143 133.99 12.3593 135.695C11.9591 137.194 11.9659 138.533 12.3798 139.711C12.7937 140.889 13.5436 141.892 14.6294 142.721C15.706 143.547 17.0487 144.18 18.6575 144.619C20.257 145.056 21.7339 145.186 23.0883 145.009C24.4334 144.829 25.5848 144.328 26.5425 143.506C27.4909 142.682 28.1653 141.52 28.5655 140.02C29.0205 138.316 28.9553 136.822 28.3701 135.538C27.7755 134.252 26.7878 133.205 25.407 132.398L26.7525 130.048C28.5941 131.148 29.9095 132.612 30.699 134.439C31.4816 136.254 31.5621 138.326 30.9406 140.654Z" fill="white"/>
<path d="M38.053 119.358C37.2173 121.255 36.0888 122.68 34.6677 123.634C33.2465 124.588 31.637 125.085 29.839 125.125C28.045 125.156 26.1688 124.74 24.2104 123.877C22.2521 123.014 20.6791 121.91 19.4915 120.565C18.3078 119.211 17.5884 117.688 17.3335 115.995C17.0786 114.303 17.369 112.508 18.2048 110.611C19.0445 108.706 20.1749 107.276 21.596 106.322C23.0172 105.368 24.6247 104.876 26.4188 104.845C28.2128 104.814 30.089 105.23 32.0474 106.093C34.0057 106.956 35.5787 108.06 36.7663 109.405C37.954 110.75 38.6752 112.269 38.9302 113.961C39.1851 115.654 38.8927 117.453 38.053 119.358ZM35.8036 118.367C36.4383 116.95 36.6416 115.628 36.4136 114.401C36.1806 113.16 35.5894 112.052 34.6398 111.075C33.6941 110.089 32.4626 109.262 30.9453 108.594C29.4192 107.921 27.9778 107.57 26.6211 107.541C25.2683 107.503 24.06 107.819 22.9962 108.488C21.9362 109.148 21.0889 110.186 20.4543 111.603C19.8196 113.019 19.6162 114.341 19.8442 115.569C20.0762 116.788 20.665 117.89 21.6106 118.875C22.5563 119.861 23.7903 120.695 25.3125 121.376C26.8259 122.053 28.261 122.407 29.6177 122.436C30.9744 122.465 32.1871 122.151 33.2558 121.495C34.3196 120.826 35.1689 119.783 35.8036 118.367Z" fill="white"/>
<path d="M44.3972 104.476L26.9119 93.1692L28.3252 90.9835L47.8822 90.6976L34.2218 81.8644L35.6351 79.6788L53.1204 90.9852L51.7071 93.1709L32.1379 93.4489L45.8105 102.29L44.3972 104.476Z" fill="white"/>
<path d="M62.3746 79.8387C61.4021 80.9476 60.3365 81.7825 59.1778 82.3434C58.0255 82.8971 56.8472 83.1587 55.6429 83.1283C54.4377 83.0843 53.2805 82.7298 52.1713 82.0647L53.6104 79.7878C54.8185 80.3986 56.0512 80.5501 57.3085 80.2423C58.5648 79.9209 59.6697 79.2167 60.6232 78.1296C61.2398 77.4265 61.6872 76.697 61.9656 75.941C62.2431 75.1714 62.3214 74.4388 62.2007 73.7431C62.08 73.0474 61.737 72.4517 61.1717 71.9559C60.8238 71.6508 60.4726 71.4517 60.1182 71.3588C59.7628 71.2523 59.406 71.2279 59.0477 71.2855C58.6885 71.3295 58.3329 71.428 57.9809 71.5808C57.6289 71.7337 57.289 71.9165 56.9614 72.1292L52.2773 75.0797C51.7654 75.4002 51.2337 75.6775 50.6821 75.9117C50.1232 76.1396 49.5553 76.2827 48.9785 76.341C48.3944 76.3929 47.8096 76.3288 47.224 76.1485C46.6311 75.9619 46.0448 75.6144 45.465 75.1059C44.5373 74.2923 43.957 73.3603 43.7243 72.3099C43.4906 71.2459 43.5622 70.1482 43.9389 69.0169C44.3157 67.8856 44.9621 66.8049 45.8783 65.7748C46.8072 64.7303 47.8188 63.957 48.9131 63.455C50.0064 62.9393 51.1321 62.7084 52.2901 62.7624C53.4544 62.8091 54.594 63.1545 55.7086 63.7988L54.2654 66.1681C53.5323 65.7174 52.7721 65.4803 51.985 65.4567C51.197 65.4196 50.4351 65.5719 49.6992 65.9139C48.9561 66.2495 48.2885 66.7475 47.6965 67.4079C47.1299 68.0393 46.726 68.7045 46.4849 69.4034C46.2438 70.1023 46.1782 70.7692 46.2881 71.4042C46.3908 72.0327 46.6849 72.5599 47.1705 72.9858C47.6488 73.4053 48.1573 73.6077 48.696 73.5929C49.2274 73.5717 49.7549 73.4381 50.2785 73.1921C50.8011 72.9324 51.2852 72.6582 51.7308 72.3694L55.2021 70.1439C55.5951 69.8859 56.0688 69.6089 56.6232 69.313C57.184 69.0099 57.8009 68.7816 58.474 68.6282C59.1398 68.4685 59.8435 68.4702 60.5851 68.6334C61.3195 68.7902 62.0636 69.1991 62.8173 69.8602C63.5711 70.5212 64.108 71.2614 64.4281 72.0807C64.7545 72.8927 64.8818 73.7416 64.8101 74.6276C64.7311 75.5071 64.4816 76.391 64.0616 77.2792C63.6489 78.1738 63.0865 79.027 62.3746 79.8387Z" fill="white"/>
<path d="M77.6713 64.2597C76.4457 65.3035 75.1475 65.9722 73.7768 66.2658C72.4061 66.5594 71.0654 66.4793 69.7546 66.0255C68.4449 65.5581 67.265 64.7079 66.215 63.4749L57.646 53.4128L59.6182 51.7143L68.056 61.6223C68.6935 62.3709 69.3745 62.9178 70.0991 63.2631C70.8247 63.5948 71.5529 63.7659 72.2838 63.7767C73.0146 63.7874 73.7077 63.6719 74.363 63.4304C75.0195 63.1753 75.5972 62.8352 76.0963 62.4102C76.6027 61.9789 77.031 61.4559 77.3811 60.8412C77.7313 60.2264 77.9587 59.5643 78.0634 58.8546C78.1693 58.1314 78.1094 57.3846 77.884 56.6143C77.6585 55.8441 77.2301 55.0883 76.5988 54.347L68.1611 44.439L70.1427 42.7515L78.7211 52.8246C79.7649 54.0502 80.4095 55.3499 80.655 56.7236C80.9079 58.091 80.7802 59.4279 80.272 60.7344C79.7639 62.0408 78.897 63.2159 77.6713 64.2597Z" fill="white"/>
<path d="M89.5129 54.1115L78.2065 36.6262L80.3679 35.2286L90.3474 50.6618L98.4586 45.4169L99.7856 47.469L89.5129 54.1115Z" fill="white"/>
<path d="M108.613 42.6248L100.582 26.094L94.1957 29.1967L93.1277 26.9986L108.215 19.6684L109.283 21.8665L102.897 24.9692L110.928 41.5L108.613 42.6248Z" fill="white"/>
<path d="M119.678 37.0855L119.797 15.1279L123.204 14.0081L136.327 31.6127L133.786 32.4481L121.558 16.1321L122.327 15.8793L122.22 36.2502L119.678 37.0855ZM121.343 31.4086L120.589 29.1145L130.865 25.7369L131.619 28.031L121.343 31.4086Z" fill="white"/>
<path d="M147.086 29.0827L143.781 11.0037L136.797 12.2805L136.358 9.87664L152.858 6.86005L153.297 9.26394L146.313 10.5408L149.618 28.6198L147.086 29.0827Z" fill="white"/>
<path d="M161.295 26.8381L159.61 6.08399L162.175 5.87574L163.86 26.6299L161.295 26.8381Z" fill="white"/>
<path d="M181.134 26.4438C179.062 26.3638 177.322 25.8384 175.913 24.8675C174.503 23.8966 173.449 22.5824 172.751 20.9251C172.062 19.2682 171.76 17.3704 171.842 15.2319C171.925 13.0935 172.373 11.2247 173.187 9.62581C174.011 8.02725 175.163 6.7983 176.643 5.93898C178.124 5.07965 179.899 4.68997 181.97 4.76994C184.051 4.85028 185.796 5.37591 187.206 6.34682C188.615 7.31773 189.664 8.63166 190.353 10.2886C191.041 11.9456 191.344 13.8433 191.262 15.9818C191.179 18.1203 190.731 19.989 189.917 21.5879C189.102 23.1869 187.955 24.416 186.475 25.2753C184.995 26.1346 183.214 26.5241 181.134 26.4438ZM181.228 23.9874C182.779 24.0569 184.083 23.76 185.141 23.0966C186.209 22.4239 187.022 21.4665 187.582 20.2243C188.151 18.9825 188.467 17.5332 188.531 15.8763C188.595 14.2099 188.392 12.7404 187.92 11.4681C187.458 10.1961 186.72 9.18844 185.707 8.44508C184.703 7.70208 183.426 7.29583 181.876 7.22631C180.325 7.15679 179.021 7.45373 177.963 8.11713C176.915 8.7809 176.106 9.73369 175.537 10.9755C174.968 12.2173 174.647 13.6713 174.573 15.3374C174.499 16.9939 174.698 18.4583 175.17 19.7306C175.642 21.003 176.38 22.0155 177.383 22.7681C178.396 23.5115 179.678 23.9179 181.228 23.9874Z" fill="white"/>
<path d="M197.353 26.8657L201.41 6.44241L203.963 6.94959L211.444 25.0213L214.614 9.06567L217.167 9.57285L213.11 29.9961L210.557 29.4889L203.078 11.403L199.906 27.3728L197.353 26.8657Z" fill="white"/>
<path d="M237.76 38.6947C236.459 38.1097 235.375 37.3474 234.508 36.408C233.64 35.4685 233.012 34.3984 232.622 33.1977C232.235 31.9882 232.104 30.6819 232.227 29.2789C232.363 27.8709 232.776 26.4021 233.463 24.8722C234.373 22.85 235.52 21.2624 236.905 20.1095C238.29 18.9565 239.817 18.2745 241.487 18.0634C243.161 17.8435 244.881 18.1309 246.648 18.9254C248.776 19.882 250.267 21.1496 251.122 22.7282C251.98 24.298 252.27 26.0508 251.992 27.9866L249.399 27.4073C249.521 26.0776 249.283 24.8663 248.686 23.7734C248.089 22.6804 247.113 21.8296 245.759 21.2208C244.348 20.5756 243.027 20.3624 241.798 20.5812C240.581 20.7953 239.476 21.3714 238.484 22.3098C237.491 23.2481 236.649 24.4758 235.956 25.9929C235.267 27.5012 234.903 28.9336 234.864 30.29C234.825 31.6465 235.13 32.8615 235.778 33.9351C236.439 35.0039 237.475 35.8609 238.887 36.5061C240.105 37.0643 241.238 37.2939 242.287 37.1946C243.336 37.0954 244.29 36.7001 245.151 36.0089C246.011 35.3176 246.772 34.3651 247.434 33.1513L243.399 31.3368L244.27 29.3982L250.785 32.3273C250.733 32.515 250.651 32.732 250.54 32.9782C250.442 33.2195 250.374 33.3841 250.334 33.4721C249.555 35.2041 248.532 36.6097 247.265 37.6888C246.011 38.763 244.574 39.4067 242.956 39.62C241.347 39.8373 239.615 39.5288 237.76 38.6947Z" fill="white"/>
<path d="M251.593 44.6718L262.835 27.1451L269.761 31.5873C269.931 31.6966 270.129 31.8348 270.354 32.002C270.584 32.1611 270.796 32.3311 270.989 32.5122C271.844 33.2672 272.431 34.1019 272.75 35.0161C273.076 35.9356 273.154 36.8848 272.984 37.8639C272.82 38.8348 272.438 39.7868 271.84 40.72C270.97 42.075 269.863 43.0252 268.517 43.5704C267.176 44.1075 265.743 44.0647 264.219 43.4418L263.305 43.0448L257.913 39.5863L253.76 46.0614L251.593 44.6718ZM262.024 51.3624L263.142 42.0128L265.706 42.7296L264.507 52.9551L262.024 51.3624ZM259.233 37.5293L263.918 40.5351C264.073 40.6339 264.252 40.7377 264.457 40.8464C264.671 40.9603 264.88 41.0542 265.084 41.1282C265.727 41.3575 266.333 41.4136 266.9 41.2966C267.481 41.1767 268.001 40.9376 268.46 40.5791C268.924 40.2126 269.312 39.7859 269.624 39.2991C269.937 38.8122 270.16 38.2855 270.294 37.7189C270.434 37.1442 270.437 36.5678 270.304 35.9899C270.179 35.4172 269.875 34.8904 269.394 34.4096C269.246 34.2464 269.074 34.0957 268.876 33.9575C268.692 33.8163 268.523 33.6963 268.369 33.5974L263.683 30.5917L259.233 37.5293Z" fill="white"/>
<path d="M268.913 55.7663L287.802 44.5695L290.515 46.9144L282.173 67.2259L280.149 65.4767L287.847 46.5961L288.459 47.1256L270.937 57.5155L268.913 55.7663ZM274.637 54.2729L276.216 52.4459L284.4 59.5184L282.821 61.3454L274.637 54.2729Z" fill="white"/>
<path d="M289.766 75.0596L303.54 62.8911L298.839 57.5704L300.67 55.9524L311.776 68.5228L309.945 70.1408L305.244 64.82L291.471 76.9885L289.766 75.0596Z" fill="white"/>
<path d="M302.993 92.3763C302.104 91.0341 301.596 89.665 301.47 88.269C301.343 86.873 301.583 85.5515 302.191 84.3048C302.813 83.0607 303.799 81.9915 305.149 81.0972L316.167 73.7992L317.617 75.9612L306.767 83.1475C305.947 83.6904 305.322 84.3008 304.892 84.9786C304.476 85.6592 304.219 86.3616 304.12 87.0858C304.022 87.8101 304.053 88.512 304.214 89.1916C304.388 89.8739 304.657 90.4884 305.019 91.0349C305.386 91.5894 305.854 92.0774 306.422 92.4989C306.99 92.9204 307.62 93.2257 308.312 93.415C309.017 93.6069 309.766 93.6373 310.558 93.506C311.349 93.3747 312.151 93.0402 312.963 92.5025L323.813 85.3163L325.25 87.4863L314.219 94.7923C312.877 95.6813 311.51 96.1651 310.116 96.2438C308.728 96.3305 307.417 96.0432 306.181 95.3817C304.945 94.7203 303.882 93.7185 302.993 92.3763Z" fill="white"/>
<path d="M311.716 105.765L330.273 96.3202L331.44 98.614L312.883 108.059L311.716 105.765Z" fill="white"/>
<path d="M318.46 119.975L335.593 113.325L333.024 106.706L335.303 105.822L341.372 121.459L339.093 122.344L336.525 115.725L319.391 122.374L318.46 119.975Z" fill="white"/>
<path d="M323.604 133.77L343.839 128.86L346.942 141.648L344.567 142.224L342.071 131.938L335.733 133.476L337.82 142.076L335.445 142.652L333.358 134.052L326.585 135.695L329.081 145.982L326.706 146.558L323.604 133.77Z" fill="white"/>
</svg>
