<svg width="289" height="289" viewBox="0 0 289 289" fill="none" xmlns="http://www.w3.org/2000/svg">
<path d="M288.801 144.401C288.801 224.151 224.151 288.801 144.401 288.801C64.6504 288.801 0 224.151 0 144.401C0 64.6504 64.6504 0 144.401 0C224.151 0 288.801 64.6504 288.801 144.401Z" fill="black"/>
<path d="M241.84 167.937C242.199 166.522 242.815 165.4 243.69 164.57C244.566 163.741 245.625 163.207 246.869 162.969C248.112 162.737 249.464 162.806 250.925 163.175C252.387 163.545 253.609 164.128 254.591 164.923C255.572 165.724 256.25 166.698 256.626 167.843C257.001 168.989 257.01 170.27 256.652 171.685C256.236 173.331 255.475 174.578 254.371 175.426C253.265 176.281 251.954 176.73 250.437 176.773L250.415 174.866C251.548 174.845 252.515 174.54 253.315 173.951C254.116 173.362 254.669 172.465 254.973 171.26C255.242 170.2 255.224 169.257 254.922 168.431C254.62 167.605 254.082 166.906 253.31 166.332C252.544 165.76 251.593 165.327 250.456 165.032C249.325 164.739 248.283 164.661 247.331 164.798C246.385 164.937 245.579 165.3 244.912 165.888C244.252 166.477 243.787 167.302 243.519 168.362C243.214 169.567 243.274 170.618 243.698 171.517C244.128 172.418 244.834 173.146 245.814 173.702L244.888 175.369C243.58 174.611 242.64 173.592 242.068 172.313C241.5 171.041 241.424 169.583 241.84 167.937Z" fill="white"/>
<path d="M237.038 182.67C237.613 181.328 238.398 180.316 239.392 179.634C240.386 178.952 241.516 178.591 242.782 178.55C244.046 178.515 245.37 178.795 246.756 179.389C248.141 179.983 249.257 180.749 250.103 181.688C250.946 182.633 251.464 183.701 251.656 184.891C251.847 186.082 251.655 187.348 251.08 188.69C250.502 190.038 249.716 191.053 248.722 191.735C247.728 192.417 246.599 192.775 245.336 192.81C244.072 192.844 242.748 192.565 241.362 191.971C239.977 191.377 238.861 190.61 238.015 189.672C237.169 188.733 236.65 187.668 236.458 186.478C236.267 185.287 236.46 184.018 237.038 182.67ZM238.629 183.352C238.192 184.354 238.058 185.287 238.228 186.15C238.401 187.022 238.825 187.799 239.501 188.48C240.174 189.167 241.047 189.741 242.121 190.201C243.2 190.664 244.218 190.901 245.174 190.912C246.127 190.929 246.976 190.698 247.72 190.219C248.462 189.747 249.052 189.009 249.489 188.007C249.926 187.005 250.059 186.073 249.89 185.209C249.718 184.353 249.296 183.58 248.622 182.893C247.949 182.205 247.074 181.627 245.997 181.158C244.926 180.692 243.913 180.453 242.957 180.442C242.001 180.432 241.15 180.661 240.401 181.131C239.657 181.61 239.066 182.35 238.629 183.352Z" fill="white"/>
<path d="M233.146 192.113L245.546 199.947L244.567 201.497L230.794 201.844L240.481 207.964L239.502 209.514L227.102 201.68L228.081 200.13L241.863 199.789L232.167 193.663L233.146 192.113Z" fill="white"/>
<path d="M221.03 208.954C221.708 208.167 222.454 207.573 223.267 207.171C224.076 206.775 224.904 206.583 225.752 206.598C226.602 206.622 227.419 206.865 228.204 207.327L227.203 208.939C226.349 208.516 225.48 208.416 224.596 208.64C223.713 208.874 222.939 209.376 222.273 210.148C221.843 210.646 221.532 211.163 221.34 211.697C221.149 212.241 221.098 212.757 221.187 213.246C221.276 213.736 221.521 214.153 221.923 214.499C222.169 214.712 222.418 214.85 222.668 214.914C222.919 214.987 223.17 215.002 223.422 214.959C223.675 214.926 223.925 214.855 224.172 214.745C224.419 214.635 224.658 214.505 224.887 214.353L228.169 212.248C228.528 212.019 228.901 211.821 229.288 211.652C229.681 211.489 230.08 211.385 230.486 211.34C230.897 211.3 231.309 211.342 231.723 211.466C232.141 211.594 232.556 211.835 232.968 212.19C233.626 212.758 234.04 213.411 234.21 214.149C234.381 214.897 234.337 215.671 234.078 216.47C233.819 217.269 233.37 218.034 232.73 218.765C232.082 219.506 231.374 220.056 230.606 220.416C229.839 220.786 229.047 220.955 228.231 220.924C227.411 220.898 226.606 220.661 225.818 220.213L226.82 218.536C227.339 218.849 227.876 219.012 228.431 219.024C228.986 219.046 229.522 218.934 230.038 218.689C230.56 218.448 231.027 218.094 231.44 217.625C231.836 217.177 232.116 216.706 232.282 216.213C232.448 215.719 232.49 215.249 232.409 214.802C232.333 214.36 232.123 213.99 231.779 213.693C231.439 213.4 231.08 213.261 230.701 213.274C230.326 213.292 229.956 213.389 229.588 213.566C229.222 213.752 228.882 213.948 228.57 214.154L226.138 215.741C225.862 215.925 225.53 216.123 225.142 216.335C224.748 216.551 224.315 216.716 223.842 216.828C223.374 216.944 222.878 216.947 222.355 216.836C221.837 216.73 221.31 216.446 220.775 215.985C220.241 215.524 219.858 215.005 219.628 214.43C219.393 213.86 219.299 213.263 219.344 212.638C219.395 212.018 219.566 211.394 219.856 210.766C220.142 210.134 220.533 209.53 221.03 208.954Z" fill="white"/>
<path d="M210.735 219.484C211.593 218.742 212.504 218.265 213.468 218.051C214.432 217.837 215.377 217.887 216.302 218.2C217.227 218.522 218.063 219.115 218.809 219.978L224.896 227.022L223.515 228.229L217.521 221.293C217.068 220.769 216.586 220.387 216.074 220.147C215.561 219.917 215.047 219.801 214.532 219.797C214.017 219.793 213.53 219.878 213.069 220.051C212.608 220.234 212.203 220.477 211.854 220.779C211.499 221.085 211.2 221.456 210.957 221.89C210.713 222.325 210.556 222.793 210.486 223.293C210.415 223.803 210.461 224.329 210.624 224.87C210.787 225.412 211.093 225.942 211.541 226.461L217.535 233.397L216.148 234.595L210.054 227.544C209.312 226.686 208.852 225.774 208.672 224.807C208.487 223.846 208.57 222.903 208.921 221.98C209.272 221.058 209.877 220.225 210.735 219.484Z" fill="white"/>
<path d="M203.08 226.1L211.14 238.354L209.625 239.35L202.511 228.534L196.827 232.273L195.881 230.835L203.08 226.1Z" fill="white"/>
<path d="M190.54 233.737L196.307 245.327L200.784 243.1L201.551 244.641L190.972 249.904L190.206 248.363L194.683 246.135L188.917 234.544L190.54 233.737Z" fill="white"/>
<path d="M183.234 237.426L183.335 252.893L180.945 253.71L171.553 241.421L173.336 240.811L182.087 252.2L181.547 252.385L181.451 238.036L183.234 237.426ZM182.109 241.439L182.659 243.048L175.451 245.514L174.9 243.904L182.109 241.439Z" fill="white"/>
<path d="M164.935 242.939L167.405 255.647L172.314 254.693L172.642 256.383L161.044 258.637L160.716 256.947L165.625 255.993L163.156 243.285L164.935 242.939Z" fill="white"/>
<path d="M155.382 244.504L156.702 259.112L154.896 259.275L153.576 244.668L155.382 244.504Z" fill="white"/>
<path d="M142.492 244.804C143.951 244.839 145.182 245.192 146.185 245.862C147.187 246.531 147.943 247.446 148.451 248.607C148.953 249.767 149.185 251.1 149.148 252.607C149.112 254.114 148.815 255.435 148.257 256.569C147.693 257.703 146.894 258.581 145.86 259.201C144.826 259.821 143.579 260.113 142.12 260.077C140.654 260.042 139.419 259.689 138.417 259.019C137.414 258.35 136.662 257.435 136.16 256.275C135.659 255.115 135.426 253.781 135.463 252.274C135.5 250.767 135.797 249.446 136.354 248.312C136.912 247.178 137.707 246.3 138.741 245.68C139.775 245.06 141.025 244.768 142.492 244.804ZM142.45 246.535C141.357 246.501 140.441 246.724 139.703 247.201C138.957 247.686 138.394 248.368 138.013 249.249C137.624 250.129 137.416 251.153 137.388 252.321C137.359 253.495 137.517 254.528 137.862 255.42C138.201 256.311 138.73 257.013 139.451 257.526C140.166 258.04 141.069 258.313 142.162 258.346C143.255 258.38 144.17 258.158 144.909 257.68C145.64 257.202 146.2 256.523 146.589 255.642C146.977 254.762 147.189 253.735 147.224 252.56C147.259 251.393 147.104 250.364 146.759 249.472C146.414 248.581 145.884 247.875 145.17 247.355C144.449 246.842 143.542 246.568 142.45 246.535Z" fill="white"/>
<path d="M131.963 244.624L129.248 259.038L127.447 258.698L122.05 246.022L119.93 257.283L118.128 256.944L120.842 242.53L122.644 242.869L128.039 255.555L130.161 244.285L131.963 244.624Z" fill="white"/>
<path d="M104.3 236.709C105.221 237.112 105.99 237.641 106.607 238.297C107.225 238.953 107.675 239.702 107.958 240.545C108.239 241.394 108.34 242.313 108.263 243.302C108.177 244.295 107.897 245.333 107.424 246.415C106.797 247.846 106 248.972 105.033 249.794C104.065 250.615 102.994 251.107 101.82 251.267C100.642 251.434 99.4285 251.243 98.1782 250.696C96.6728 250.037 95.6136 249.155 95.0006 248.049C94.3849 246.949 94.1684 245.716 94.351 244.351L96.1816 244.741C96.1049 245.678 96.2807 246.53 96.709 247.296C97.1374 248.061 97.8305 248.654 98.7885 249.073C99.7873 249.518 100.719 249.658 101.583 249.496C102.439 249.336 103.213 248.923 103.905 248.255C104.598 247.587 105.183 246.716 105.66 245.643C106.135 244.576 106.381 243.564 106.399 242.609C106.417 241.653 106.194 240.799 105.73 240.048C105.257 239.299 104.521 238.703 103.522 238.258C102.66 237.874 101.86 237.72 101.122 237.797C100.384 237.875 99.7146 238.16 99.1134 238.653C98.5122 239.145 97.9827 239.822 97.5249 240.681L100.38 241.931L99.7798 243.303L95.1703 241.285C95.2061 241.153 95.2621 240.999 95.3384 240.825C95.4057 240.654 95.4529 240.538 95.4802 240.476C96.0165 239.25 96.7273 238.253 97.6123 237.484C98.4885 236.719 99.4956 236.255 100.634 236.094C101.766 235.929 102.988 236.134 104.3 236.709Z" fill="white"/>
<path d="M95.4409 232.959L87.6533 245.388L82.7421 242.311C82.6213 242.236 82.481 242.14 82.3214 242.024C82.1581 241.913 82.0078 241.795 81.8705 241.669C81.2622 241.144 80.8425 240.56 80.6114 239.918C80.3746 239.273 80.3124 238.605 80.4247 237.914C80.5335 237.229 80.7952 236.556 81.2098 235.894C81.8119 234.933 82.5849 234.256 83.529 233.862C84.4695 233.473 85.479 233.493 86.5574 233.92L87.2038 234.193L91.0275 236.589L93.9045 231.997L95.4409 232.959ZM88.0439 228.325L87.3261 234.919L85.515 234.433L86.2832 227.221L88.0439 228.325ZM90.1135 238.047L86.7905 235.965C86.6811 235.897 86.5538 235.825 86.4085 235.75C86.2575 235.671 86.1096 235.607 85.965 235.556C85.5103 235.399 85.0835 235.364 84.6846 235.451C84.2764 235.54 83.912 235.712 83.5914 235.968C83.2672 236.23 82.997 236.533 82.7807 236.878C82.5643 237.224 82.411 237.596 82.3205 237.996C82.2265 238.402 82.2286 238.808 82.3267 239.214C82.4191 239.617 82.6368 239.985 82.9797 240.321C83.0847 240.434 83.2073 240.539 83.3476 240.635C83.4784 240.733 83.5986 240.816 83.7079 240.885L87.0309 242.967L90.1135 238.047Z" fill="white"/>
<path d="M84.2188 225.921L71.0089 233.967L69.0781 232.338L74.7829 217.962L76.2232 219.177L70.9601 232.54L70.5241 232.172L82.7785 224.706L84.2188 225.921ZM80.1993 227.021L79.1025 228.322L73.279 223.409L74.3758 222.109L80.1993 227.021Z" fill="white"/>
<path d="M70.0863 213.083L60.4786 221.76L63.8305 225.472L62.553 226.625L54.634 217.857L55.9115 216.703L59.2634 220.415L68.8711 211.738L70.0863 213.083Z" fill="white"/>
<path d="M60.9777 201.27C61.6111 202.21 61.9763 203.172 62.0732 204.154C62.1701 205.137 62.0078 206.069 61.5863 206.951C61.1554 207.83 60.4668 208.589 59.5206 209.226L51.7989 214.426L50.7663 212.911L58.3697 207.791C58.9442 207.404 59.381 206.97 59.6801 206.491C59.9697 206.009 60.1473 205.513 60.2127 205.002C60.2781 204.492 60.2522 203.997 60.1351 203.519C60.0085 203.04 59.8163 202.609 59.5583 202.226C59.2966 201.837 58.9645 201.496 58.562 201.202C58.1594 200.908 57.714 200.696 57.2256 200.567C56.7278 200.436 56.2004 200.418 55.6434 200.515C55.0863 200.612 54.5234 200.852 53.9546 201.235L46.3511 206.356L45.327 204.835L53.0572 199.629C53.9977 198.995 54.9585 198.647 55.9394 198.584C56.9165 198.516 57.8421 198.711 58.7163 199.17C59.5904 199.629 60.3442 200.329 60.9777 201.27Z" fill="white"/>
<path d="M55.3088 192.723L42.2985 199.495L41.4614 197.887L54.4717 191.115L55.3088 192.723Z" fill="white"/>
<path d="M50.6687 183.103L38.6517 187.918L40.5119 192.56L38.914 193.201L34.5193 182.233L36.1172 181.593L37.9774 186.235L49.9943 181.42L50.6687 183.103Z" fill="white"/>
<path d="M47.3534 174.484L33.1485 178.137L30.8399 169.161L32.507 168.732L34.364 175.953L38.8129 174.809L37.2604 168.771L38.9275 168.343L40.48 174.38L45.2347 173.157L43.3778 165.936L45.0449 165.508L47.3534 174.484Z" fill="white"/>
<path d="M38.6623 147.503C38.8174 149.326 37.4831 150.909 35.6601 151.064C33.8371 151.219 32.2547 149.885 32.0996 148.062C31.9445 146.239 33.2789 144.656 35.1019 144.501C36.9249 144.346 38.5073 145.68 38.6623 147.503Z" fill="white"/>
<path d="M256.835 143.577C256.977 145.256 255.749 146.713 254.07 146.855C252.392 146.998 250.935 145.77 250.792 144.091C250.65 142.413 251.878 140.956 253.556 140.813C255.235 140.67 256.692 141.899 256.835 143.577Z" fill="white"/>
<path d="M46.4309 119.693C46.0544 121.104 45.4231 122.218 44.5372 123.036C43.6513 123.854 42.5847 124.374 41.3376 124.596C40.0923 124.812 38.7414 124.725 37.2849 124.336C35.8285 123.948 34.6142 123.349 33.642 122.542C32.6716 121.728 32.0061 120.745 31.6455 119.595C31.2849 118.444 31.2929 117.164 31.6694 115.753C32.1072 114.113 32.8837 112.876 33.9988 112.042C35.1157 111.202 36.4329 110.77 37.9502 110.746L37.9471 112.653C36.8138 112.66 35.8432 112.953 35.0351 113.531C34.2271 114.11 33.6628 114.999 33.3424 116.2C33.0604 117.256 33.0652 118.199 33.3568 119.029C33.6483 119.859 34.1765 120.566 34.9414 121.149C35.6997 121.731 36.6455 122.177 37.7788 122.486C38.9055 122.794 39.9458 122.886 40.8998 122.761C41.8473 122.634 42.6583 122.281 43.3329 121.702C44.001 121.122 44.476 120.303 44.7579 119.247C45.0784 118.046 45.0325 116.994 44.6202 116.09C44.2014 115.184 43.5057 114.446 42.533 113.877L43.4809 112.222C44.778 112.997 45.7046 114.028 46.2607 115.315C46.812 116.594 46.8687 118.053 46.4309 119.693Z" fill="white"/>
<path d="M51.2043 105.554C50.6156 106.89 49.8207 107.894 48.8196 108.566C47.8186 109.238 46.6848 109.588 45.4184 109.616C44.1547 109.638 42.8331 109.345 41.4536 108.737C40.0742 108.129 38.9662 107.351 38.1296 106.404C37.2958 105.45 36.7891 104.377 36.6096 103.185C36.43 101.993 36.6346 100.729 37.2233 99.3929C37.8147 98.0507 38.611 97.0437 39.612 96.3717C40.6131 95.6998 41.7455 95.3529 43.0092 95.331C44.2729 95.309 45.5945 95.602 46.9739 96.2099C48.3534 96.8178 49.4614 97.5955 50.2979 98.5429C51.1345 99.4904 51.6425 100.56 51.8221 101.752C52.0017 102.945 51.7957 104.212 51.2043 105.554ZM49.6198 104.856C50.0668 103.858 50.2101 102.927 50.0494 102.062C49.8854 101.188 49.4689 100.407 48.8 99.7194C48.1339 99.0251 47.2664 98.4425 46.1976 97.9715C45.1227 97.4978 44.1073 97.2507 43.1517 97.2303C42.1988 97.2037 41.3476 97.426 40.5983 97.8971C39.8517 98.3621 39.2549 99.0935 38.8078 100.091C38.3607 101.089 38.2175 102.02 38.3781 102.885C38.5415 103.743 38.9562 104.52 39.6224 105.214C40.2885 105.908 41.1577 106.495 42.2299 106.975C43.296 107.452 44.3068 107.701 45.2625 107.722C46.2181 107.742 47.0723 107.521 47.8252 107.059C48.5745 106.588 49.1727 105.853 49.6198 104.856Z" fill="white"/>
<path d="M55.2719 95.9525L42.9554 87.9883L43.9509 86.4488L57.7268 86.2474L48.1044 80.0253L49.1 78.4858L61.4165 86.45L60.421 87.9895L46.6366 88.1854L56.2675 94.413L55.2719 95.9525Z" fill="white"/>
<path d="M67.4358 79.3514C66.7508 80.1325 66.0002 80.7205 65.184 81.1157C64.3723 81.5057 63.5423 81.6899 62.694 81.6685C61.8451 81.6375 61.03 81.3878 60.2487 80.9193L61.2624 79.3155C62.1134 79.7458 62.9817 79.8525 63.8673 79.6357C64.7522 79.4093 65.5305 78.9132 66.2021 78.1474C66.6364 77.6522 66.9516 77.1384 67.1477 76.6059C67.3432 76.0638 67.3984 75.5477 67.3133 75.0576C67.2283 74.5676 66.9867 74.148 66.5885 73.7987C66.3434 73.5838 66.0961 73.4436 65.8464 73.3782C65.5961 73.3032 65.3447 73.286 65.0924 73.3265C64.8394 73.3576 64.5889 73.4269 64.3409 73.5346C64.0929 73.6422 63.8536 73.771 63.6228 73.9208L60.3233 75.9992C59.9628 76.2249 59.5882 76.4202 59.1997 76.5852C58.806 76.7458 58.406 76.8465 57.9997 76.8876C57.5883 76.9242 57.1763 76.879 56.7638 76.752C56.3462 76.6206 55.9332 76.3758 55.5248 76.0176C54.8713 75.4445 54.4626 74.788 54.2986 74.0481C54.1341 73.2986 54.1845 72.5254 54.4498 71.7285C54.7152 70.9316 55.1706 70.1704 55.8159 69.4449C56.4703 68.7091 57.1828 68.1644 57.9536 67.8107C58.7237 67.4475 59.5167 67.2849 60.3323 67.3229C61.1525 67.3558 61.9552 67.5991 62.7403 68.0529L61.7237 69.7219C61.2073 69.4044 60.6719 69.2374 60.1174 69.2208C59.5624 69.1946 59.0257 69.3019 58.5073 69.5428C57.9839 69.7792 57.5137 70.13 57.0967 70.5952C56.6975 71.04 56.4131 71.5085 56.2432 72.0008C56.0734 72.4931 56.0272 72.9629 56.1046 73.4101C56.1769 73.8529 56.3841 74.2242 56.7261 74.5242C57.063 74.8197 57.4212 74.9623 57.8007 74.9519C58.175 74.9369 58.5466 74.8428 58.9154 74.6695C59.2835 74.4866 59.6245 74.2934 59.9384 74.09L62.3836 72.5224C62.6604 72.3407 62.994 72.1456 63.3846 71.9371C63.7796 71.7236 64.2141 71.5628 64.6882 71.4548C65.1572 71.3422 65.6529 71.3434 66.1753 71.4584C66.6926 71.5689 67.2167 71.8569 67.7477 72.3226C68.2786 72.7882 68.6568 73.3096 68.8822 73.8866C69.1122 74.4586 69.2019 75.0566 69.1513 75.6807C69.0957 76.3002 68.92 76.9228 68.6241 77.5485C68.3334 78.1786 67.9373 78.7796 67.4358 79.3514Z" fill="white"/>
<path d="M77.6554 69.0046C76.7921 69.7399 75.8777 70.2109 74.9122 70.4177C73.9467 70.6245 73.0022 70.5681 72.0789 70.2485C71.1564 69.9192 70.3253 69.3204 69.5857 68.4519L63.5497 61.3642L64.9389 60.1677L70.8824 67.1468C71.3315 67.6742 71.8112 68.0594 72.3216 68.3026C72.8327 68.5363 73.3457 68.6569 73.8605 68.6644C74.3753 68.6719 74.8635 68.5906 75.3251 68.4205C75.7875 68.2408 76.1944 68.0012 76.546 67.7019C76.9027 67.3981 77.2044 67.0297 77.451 66.5967C77.6977 66.1636 77.8579 65.6972 77.9316 65.1973C78.0062 64.6879 77.964 64.1619 77.8052 63.6193C77.6464 63.0767 77.3446 62.5444 76.9 62.0222L70.9565 55.0431L72.3523 53.8544L78.3949 60.9498C79.1301 61.8132 79.5842 62.7286 79.7571 63.6963C79.9352 64.6595 79.8453 65.6012 79.4874 66.5214C79.1294 67.4417 78.5188 68.2694 77.6554 69.0046Z" fill="white"/>
<path d="M85.3051 62.4301L77.3409 50.1136L78.8634 49.1291L85.8929 60.0002L91.6064 56.3057L92.5411 57.7512L85.3051 62.4301Z" fill="white"/>
<path d="M98.1805 54.7088L92.523 43.0646L88.0248 45.2501L87.2725 43.7019L97.8998 38.5385L98.652 40.0868L94.1538 42.2723L99.8112 53.9165L98.1805 54.7088Z" fill="white"/>
<path d="M105.286 51.1378L105.37 35.671L107.77 34.8822L117.014 47.2828L115.224 47.8712L106.61 36.3784L107.152 36.2003L107.077 50.5494L105.286 51.1378ZM106.459 47.139L105.928 45.5231L113.166 43.1439L113.697 44.7599L106.459 47.139Z" fill="white"/>
<path d="M123.784 45.757L121.456 33.0223L116.536 33.9217L116.227 32.2284L127.849 30.1035L128.159 31.7968L123.239 32.6962L125.567 45.431L123.784 45.757Z" fill="white"/>
<path d="M133.07 44.298L131.883 29.6789L133.69 29.5322L134.877 44.1513L133.07 44.298Z" fill="white"/>
<path d="M146.539 44.0688C145.08 44.0125 143.855 43.6424 142.862 42.9585C141.869 42.2746 141.126 41.3489 140.635 40.1815C140.15 39.0143 139.936 37.6776 139.995 36.1713C140.053 34.6649 140.369 33.3486 140.942 32.2223C141.522 31.0963 142.334 30.2307 143.377 29.6254C144.419 29.0201 145.67 28.7456 147.129 28.8019C148.594 28.8585 149.824 29.2287 150.817 29.9126C151.81 30.5965 152.548 31.5221 153.033 32.6892C153.518 33.8564 153.732 35.1931 153.674 36.6995C153.615 38.2058 153.3 39.5221 152.726 40.6484C152.153 41.7747 151.344 42.6404 150.302 43.2457C149.259 43.8511 148.005 44.1254 146.539 44.0688ZM146.606 42.3386C147.698 42.3875 148.617 42.1784 149.362 41.7111C150.114 41.2373 150.687 40.5629 151.081 39.6879C151.482 38.8131 151.705 37.7922 151.75 36.6252C151.795 35.4513 151.652 34.4163 151.319 33.52C150.994 32.6241 150.474 31.9143 149.761 31.3906C149.054 30.8673 148.154 30.5811 147.062 30.5321C145.97 30.4832 145.051 30.6923 144.306 31.1596C143.568 31.6272 142.998 32.2983 142.597 33.1731C142.197 34.0478 141.97 35.0719 141.918 36.2455C141.866 37.4124 142.007 38.4439 142.339 39.3401C142.671 40.2363 143.191 40.9495 143.897 41.4797C144.611 42.0033 145.514 42.2896 146.606 42.3386Z" fill="white"/>
<path d="M156.997 44.3171L159.856 29.9311L161.654 30.2883L166.924 43.018L169.156 31.7789L170.955 32.1361L168.097 46.5222L166.298 46.1649L161.031 33.4253L158.796 44.6743L156.997 44.3171Z" fill="white"/>
<path d="M184.164 52.3315C183.247 51.9194 182.484 51.3825 181.873 50.7207C181.262 50.059 180.819 49.3052 180.544 48.4594C180.272 47.6075 180.18 46.6873 180.267 45.699C180.363 44.7073 180.653 43.6726 181.137 42.595C181.778 41.1706 182.586 40.0523 183.562 39.2401C184.537 38.428 185.613 37.9476 186.789 37.7989C187.968 37.644 189.18 37.8464 190.425 38.4061C191.924 39.0799 192.974 39.9728 193.576 41.0848C194.181 42.1905 194.385 43.4252 194.189 44.7888L192.362 44.3807C192.448 43.4441 192.281 42.5908 191.86 41.821C191.44 41.0511 190.752 40.4518 189.799 40.023C188.804 39.5685 187.874 39.4183 187.008 39.5725C186.151 39.7232 185.373 40.1291 184.674 40.79C183.975 41.451 183.381 42.3157 182.893 43.3844C182.408 44.4468 182.152 45.4558 182.124 46.4113C182.097 47.3667 182.311 48.2226 182.768 48.9788C183.233 49.7317 183.963 50.3353 184.958 50.7898C185.816 51.183 186.614 51.3447 187.353 51.2748C188.092 51.2049 188.764 50.9265 189.37 50.4396C189.976 49.9527 190.512 49.2817 190.979 48.4267L188.136 47.1486L188.75 45.783L193.339 47.8463C193.302 47.9785 193.244 48.1314 193.166 48.3048C193.097 48.4748 193.049 48.5907 193.021 48.6527C192.473 49.8727 191.752 50.8628 190.859 51.6229C189.976 52.3796 188.964 52.833 187.824 52.9832C186.691 53.1363 185.471 52.919 184.164 52.3315Z" fill="white"/>
<path d="M193.077 56.1569L200.996 43.8113L205.874 46.9403C205.994 47.0173 206.133 47.1147 206.292 47.2324C206.454 47.3445 206.603 47.4643 206.739 47.5918C207.341 48.1237 207.755 48.7116 207.979 49.3556C208.209 50.0032 208.264 50.6719 208.145 51.3615C208.029 52.0454 207.76 52.716 207.338 53.3733C206.726 54.3278 205.946 54.9971 204.997 55.3812C204.053 55.7595 203.044 55.7293 201.97 55.2906L201.326 55.0109L197.528 52.5748L194.603 57.1358L193.077 56.1569ZM200.424 60.8698L201.212 54.284L203.018 54.7889L202.173 61.9917L200.424 60.8698ZM198.458 51.1259L201.758 53.2431C201.867 53.3127 201.994 53.3858 202.138 53.4624C202.288 53.5426 202.435 53.6088 202.58 53.6609C203.033 53.8224 203.459 53.8619 203.859 53.7795C204.268 53.6951 204.634 53.5266 204.957 53.2741C205.284 53.0159 205.558 52.7154 205.778 52.3725C205.998 52.0295 206.155 51.6585 206.25 51.2594C206.348 50.8546 206.35 50.4486 206.256 50.0415C206.168 49.6381 205.955 49.267 205.615 48.9283C205.511 48.8134 205.39 48.7072 205.251 48.6099C205.121 48.5104 205.002 48.4259 204.893 48.3562L201.592 46.239L198.458 51.1259Z" fill="white"/>
<path d="M204.556 63.4994L217.861 55.6125L219.772 57.2642L213.896 71.5715L212.47 70.3394L217.892 57.04L218.324 57.413L205.981 64.7315L204.556 63.4994ZM208.588 62.4475L209.7 61.1606L215.465 66.1424L214.352 67.4293L208.588 62.4475Z" fill="white"/>
<path d="M218.614 76.5322L228.316 67.9608L225.005 64.2129L226.295 63.0732L234.118 71.9277L232.828 73.0674L229.516 69.3195L219.815 77.8909L218.614 76.5322Z" fill="white"/>
<path d="M227.427 88.1564C226.801 87.211 226.443 86.2466 226.354 85.2632C226.265 84.2799 226.434 83.3491 226.862 82.4709C227.3 81.5946 227.994 80.8414 228.945 80.2115L236.707 75.0708L237.728 76.5937L230.085 81.6557C229.508 82.0381 229.068 82.4681 228.765 82.9455C228.472 83.4249 228.29 83.9197 228.221 84.4298C228.151 84.94 228.174 85.4344 228.287 85.9131C228.41 86.3937 228.599 86.8265 228.854 87.2115C229.112 87.6021 229.442 87.9459 229.842 88.2428C230.242 88.5396 230.686 88.7547 231.174 88.888C231.67 89.0232 232.198 89.0446 232.755 88.9521C233.313 88.8596 233.878 88.624 234.45 88.2453L242.092 83.1833L243.105 84.7119L235.335 89.8582C234.389 90.4844 233.426 90.8252 232.445 90.8806C231.467 90.9417 230.543 90.7393 229.672 90.2734C228.802 89.8075 228.053 89.1018 227.427 88.1564Z" fill="white"/>
<path d="M233.094 96.8361L246.165 90.1829L246.988 91.7987L233.916 98.4519L233.094 96.8361Z" fill="white"/>
<path d="M237.634 106.442L249.703 101.758L247.894 97.0958L249.498 96.4729L253.773 107.488L252.169 108.11L250.359 103.448L238.29 108.132L237.634 106.442Z" fill="white"/>
<path d="M240.979 115.421L255.233 111.963L257.418 120.97L255.745 121.376L253.987 114.13L249.523 115.214L250.993 121.271L249.32 121.677L247.85 115.619L243.079 116.777L244.838 124.023L243.165 124.429L240.979 115.421Z" fill="white"/>
</svg>
